<svg version="1.1" xmlns="http://www.w3.org/2000/svg" xmlns:xlink="http://www.w3.org/1999/xlink" width="2000" height="2000"><defs/><g transform="scale(2,2)"><g id="background-9c3ee541"><rect fill="white" stroke="none" x="0" y="0" width="1000" height="1000" class="dcg-svg-background"/></g><g id="background-images-9c3ee541"/><g id="graphpaper-9c3ee541"><g id="axis-9c3ee541"><g><g><path fill="none" stroke="rgb(0,0,0)" class="dcg-svg-tickmark" paint-order="fill stroke markers" d="" stroke-opacity="0.9" stroke-miterlimit="2" stroke-width="2" stroke-dasharray=""/></g></g></g></g><g id="expressions-9c3ee541"><g id="sketch-9c3ee541"><title>Expression 5</title><path fill="#5a7300" stroke="none" paint-order="stroke fill markers" d="" fill-opacity="0.4"/><g><path fill="none" stroke="#5a7300" class="dcg-svg-curve" paint-order="fill stroke markers" d=" M 245.00000000000003 600.0000029802322 L 245.00000000000003 600.0000029802322 L 245.361328125 613.5700694816235 L 246.337890625 626.0870517196854 L 247.80273437499994 637.7033050444278 L 249.755859375 649.0190787638368 L 252.197265625 660.1565028594016 L 255.126953125 671.149075286711 L 258.78906249999994 682.7180973570541 L 262.939453125 693.9536966559908 L 267.822265625 705.4442964815639 L 273.19335937499994 716.5493361988908 L 274.99999999999994 720" stroke-linecap="round" stroke-linejoin="round" stroke-miterlimit="10" stroke-width="10" stroke-dasharray=""/></g><g><path fill="none" stroke="#5a7300" class="dcg-svg-curve" paint-order="fill stroke markers" d=" M 725 720 L 725 720 L 730.712890625 708.6119795393528 L 735.83984375 696.9771524637406 L 740.234375 685.5128356935927 L 743.896484375 674.4278503620478 L 747.0703125 663.097231961096 L 749.755859375 651.4491079403251 L 751.708984375 640.8361014900543 L 753.173828125 630.4633017339382 L 754.150390625 620.7985322837915 L 754.638671875 613.5700694816235 L 755 600.0000029802322" stroke-linecap="round" stroke-linejoin="round" stroke-miterlimit="10" stroke-width="10" stroke-dasharray=""/></g><path fill="#5a7300" stroke="none" paint-order="stroke fill markers" d="" fill-opacity="0.4"/><g><path fill="none" stroke="#5a7300" class="dcg-svg-curve" paint-order="fill stroke markers" d=" M 245.00000000000003 599.9999970197678 L 245.00000000000003 599.9999970197678 L 245.361328125 586.4299305183765 L 246.337890625 573.9129482803146 L 247.80273437499994 562.2966949555722 L 249.755859375 550.9809212361632 L 252.197265625 539.8434971405984 L 255.126953125 528.850924713289 L 258.78906249999994 517.2819026429459 L 262.939453125 506.04630334400923 L 267.822265625 494.55570351843613 L 273.19335937499994 483.45066380110916 L 279.296875 472.26930433433637 L 286.1328125 461.12658241823294 L 293.701171875 450.1140649885664 L 302.24609375 439.0080978344991 L 311.27929687499994 428.50802872435804 L 320.80078125 418.5815885876253 L 330.56640625 409.4291278580067 L 340.8203125 400.7844707674566 L 351.318359375 392.8315426010553 L 362.3046875 385.3724134331112 L 373.53515625000006 378.56910040536775 L 385.00976562499994 372.3989323434915 L 396.728515625 366.8476881629004 L 408.69140624999994 361.90812549060513 L 420.8984375 357.5789967637734 L 433.34960937499994 353.86441657181115 L 445.80078125 350.82647675387005 L 458.49609375 348.4002667608902 L 470 346.770854757988" stroke-linecap="round" stroke-linejoin="round" stroke-miterlimit="10" stroke-width="10" stroke-dasharray=""/></g><g><path fill="none" stroke="#5a7300" class="dcg-svg-curve" paint-order="fill stroke markers" d=" M 530 346.770854757988 L 530 346.770854757988 L 542.724609375 348.60467833757593 L 555.419921875 351.0951341187382 L 567.87109375 354.19822085025766 L 580.322265625 357.98071637808084 L 592.5292968749999 362.3798636061789 L 604.4921875 367.3922126164628 L 616.2109375 373.01978499135413 L 627.6855468749999 379.27075155468816 L 638.916015625 386.16047932415586 L 649.658203125 393.5359056944858 L 660.15625 401.5687131878203 L 670.166015625 410.0828414115453 L 679.931640625 419.30798384545085 L 689.208984375 429.0469063404204 L 697.998046875 439.3084525132534 L 706.54296875 450.45067014547834 L 714.35546875 461.8814530304935 L 721.435546875 473.5432936528486 L 727.5390625 484.8871204572612 L 732.91015625 496.18353157807485 L 737.548828125 507.28778798648364 L 741.69921875 518.719697000813 L 745.1171875 529.696626026272 L 748.046875 540.8582397731149 L 750.48828125 552.244152646813 L 752.44140625 563.9675644658529 L 753.662109375 573.9129482803146 L 754.39453125 582.4380391159535 L 754.8828125 592.2700651949808 L 755 599.9999970197678" stroke-linecap="round" stroke-linejoin="round" stroke-miterlimit="10" stroke-width="10" stroke-dasharray=""/></g></g><g id="sketch-9c3ee541"><title>Expression 7</title><path fill="#000000" stroke="none" paint-order="stroke fill markers" d="" fill-opacity="0.4"/><g><path fill="none" stroke="#000000" class="dcg-svg-curve" paint-order="fill stroke markers" d=" M 320 855 L 320 855 L 900 275" stroke-linecap="round" stroke-linejoin="round" stroke-miterlimit="10" stroke-width="10" stroke-dasharray=""/></g></g><g id="sketch-9c3ee541"><title>Expression 8</title><path fill="#000000" stroke="none" paint-order="stroke fill markers" d="" fill-opacity="0.4"/><g><path fill="none" stroke="#000000" class="dcg-svg-curve" paint-order="fill stroke markers" d=" M 100 275 L 100 275 L 680 855" stroke-linecap="round" stroke-linejoin="round" stroke-miterlimit="10" stroke-width="10" stroke-dasharray=""/></g></g><g id="sketch-9c3ee541"><title>Expression 9</title><path fill="#000000" stroke="none" paint-order="stroke fill markers" d="" fill-opacity="0.4"/><g><path fill="none" stroke="#000000" class="dcg-svg-curve" paint-order="fill stroke markers" d=" M 319.99999999999994 855 L 319.99999999999994 855 L 329.833984375 864.3238683481623 L 340.08789062499994 873.0608928467152 L 350.5859375 881.0957008946234 L 361.572265625 888.6299659593767 L 372.802734375 895.5013732780891 L 384.27734375 901.7339119550588 L 395.99609374999994 907.3428231832031 L 407.95898437499994 912.3361570488544 L 420.16601562500006 916.7158144160458 L 432.6171875 920.4782201735825 L 445.068359375 923.5608876276513 L 457.763671875 926.0300631130011 L 470.458984375 927.838542148628 L 483.3984375 929.0165115156071 L 496.33789062500006 929.5320980837693 L 509.27734375 929.3893293614029 L 522.2167968749999 928.5870933951785 L 534.9121093749999 927.1530182626971 L 547.6074218749999 925.0670577713422 L 560.302734375 922.3127174791022 L 572.75390625 918.9402982808831 L 584.9609375000001 914.9617450743369 L 596.923828125 910.3843060647746 L 608.88671875 905.0949423169889 L 620.361328125 899.3059310227576 L 631.591796875 892.90731744301 L 642.578125 885.8826172814734 L 653.3203125 878.2065003263979 L 663.57421875 870.0473659404995 L 673.583984375 861.1950600002582 L 680 855" stroke-linecap="round" stroke-linejoin="round" stroke-miterlimit="10" stroke-width="10" stroke-dasharray=""/></g><path fill="#000000" stroke="none" paint-order="stroke fill markers" d="" fill-opacity="0.4"/></g><g id="sketch-9c3ee541"><title>Expression 11</title><path fill="#000000" stroke="none" paint-order="stroke fill markers" d="" fill-opacity="0.4"/><g><path fill="none" stroke="#000000" class="dcg-svg-curve" paint-order="fill stroke markers" d=" M 69.99999999999994 175 L 69.99999999999994 175 L 70.3125 185.6019971585556 L 71.2890625 196.5035071063097 L 72.75390625 206.36594092907512 L 74.70703125 215.89468311176336 L 77.1484375 225.22287667297257 L 80.078125 234.3848162115906 L 83.740234375 243.9760127458821 L 87.890625 253.23394747236898 L 92.7734375 262.6345140023816 L 98.388671875 272.02579648822064 L 101.6895148683007 276.9999999999999" stroke-linecap="round" stroke-linejoin="round" stroke-miterlimit="10" stroke-width="10" stroke-dasharray=""/></g><g><path fill="none" stroke="#000000" class="dcg-svg-curve" paint-order="fill stroke markers" d=" M 898.3104851316994 276.9999999999999 L 898.3104851316994 276.9999999999999 L 904.541015625 267.28799753810637 L 909.912109375 257.63242266349243 L 914.55078125 247.95916933473592 L 918.45703125 238.4210424262842 L 921.630859375 229.2480240211475 L 924.31640625 219.87527729256925 L 926.513671875 210.2551221981268 L 928.22265625 200.23261380028543 L 929.19921875 191.95995281212976 L 929.6875 185.6019971585556 L 930 175" stroke-linecap="round" stroke-linejoin="round" stroke-miterlimit="10" stroke-width="10" stroke-dasharray=""/></g><path fill="#000000" stroke="none" paint-order="stroke fill markers" d="" fill-opacity="0.4"/><g><path fill="none" stroke="#000000" class="dcg-svg-curve" paint-order="fill stroke markers" d=" M 69.99999999999994 175 L 69.99999999999994 175 L 70.3125 164.3980028414444 L 71.2890625 153.4964928936903 L 72.75390625 143.63405907092488 L 74.70703125 134.10531688823664 L 77.1484375 124.77712332702743 L 80.078125 115.61518378840941 L 83.740234375 106.02398725411791 L 87.890625 96.76605252763102 L 92.7734375 87.3654859976184 L 98.388671875 77.97420351177936 L 104.736328125 68.7057591710992 L 112.060546875 59.359577691985464 L 119.873046875 50.63370203144234 L 122.60000000000002 47.84167349323923" stroke-linecap="round" stroke-linejoin="round" stroke-miterlimit="10" stroke-width="10" stroke-dasharray=""/></g><g><path fill="none" stroke="#000000" class="dcg-svg-curve" paint-order="fill stroke markers" d=" M 877.4 47.84167349323923 L 877.4 47.84167349323923 L 885.009765625 55.95226509554004 L 892.333984375 64.8136265596454 L 899.169921875 74.26105813635718 L 905.2734375 83.94968639848844 L 910.64453125 93.80064914380296 L 915.283203125 103.71562047166287 L 919.189453125 113.55954955191612 L 922.36328125 123.12612144119726 L 925.048828125 133.07258925160977 L 927.001953125 142.28442893765532 L 928.466796875 151.55639931287197 L 929.443359375 160.85500879411302 L 929.931640625 170.0396873086599 L 930 175" stroke-linecap="round" stroke-linejoin="round" stroke-miterlimit="10" stroke-width="10" stroke-dasharray=""/></g></g><g id="sketch-9c3ee541"><title>Expression 12</title><path fill="#000000" stroke="none" paint-order="stroke fill markers" d="" fill-opacity="0.4"/><g><path fill="none" stroke="#000000" class="dcg-svg-curve" paint-order="fill stroke markers" d=" M 319.4 494.48 L 319.4 494.48 L 877.4 48.08000000000004" stroke-linecap="round" stroke-linejoin="round" stroke-miterlimit="10" stroke-width="10" stroke-dasharray=""/></g></g><g id="sketch-9c3ee541"><title>Expression 13</title><path fill="#000000" stroke="none" paint-order="stroke fill markers" d="" fill-opacity="0.4"/><g><path fill="none" stroke="#000000" class="dcg-svg-curve" paint-order="fill stroke markers" d=" M 122.60000000000002 48.08000000000004 L 122.60000000000002 48.08000000000004 L 680.6 494.48" stroke-linecap="round" stroke-linejoin="round" stroke-miterlimit="10" stroke-width="10" stroke-dasharray=""/></g></g><g id="sketch-9c3ee541"><title>Expression 16</title><path fill="#ffffff" stroke="none" paint-order="stroke fill markers" d="" fill-opacity="0.4"/><path fill="#ffffff" stroke="none" paint-order="stroke fill markers" d="" fill-opacity="0.4"/><path fill="#ffffff" stroke="none" class="dcg-svg-region" paint-order="stroke fill markers" d=" M 416.33399734659247 264.50099601988865 L 425.9041882151257 278.85628232268857 L 425.9041882151257 278.85628232268857 L 423.828125 274.60990405916164 L 421.142578125 267.9554469688515 L 419.189453125 261.671536949728 L 417.724609375 255.1907898907088 L 416.748046875 248.31338083289836 L 416.33399734659247 240.0000010536712 L 416.33399734659247 264.50099601988865 M 435.6342733233359 293.45140998500386 L 500 390 L 564.3657266766642 293.45140998500375 L 564.3657266766642 293.45140998500375 L 561.279296875 296.96356532473726 L 555.908203125 302.24365689235924 L 550.048828125 307.04561733114406 L 543.9453125 311.1955722589357 L 537.353515625 314.86464366076206 L 530.517578125 317.90171644697256 L 523.4375 320.31614777708154 L 516.357421875 322.05141528092776 L 509.033203125 323.1769273374684 L 501.708984375 323.6485467441366 L 494.384765625 323.47735706713416 L 487.060546875 322.6593645803422 L 479.736328125 321.175018337801 L 472.65625 319.071608912033 L 465.8203125 316.36588873575914 L 459.228515625 313.0594693510645 L 452.880859375 309.13600065639804 L 446.77734375 304.55500648047627 L 440.91796875 299.23945968165157 L 435.6342733233359 293.45140998500386 L 435.6342733233359 293.45140998500386 M 574.0958117848743 278.85628232268857 L 583.6660026534075 264.50099601988865 L 583.6660026534075 240.0000010536712 L 583.49609375 245.32938350010676 L 583.251953125 248.31338083289836 L 582.51953125 253.8031504476432 L 581.298828125 259.76108664779616 L 579.58984375 265.7964488224752 L 577.1484375 272.3746597095412 L 574.0958117848743 278.85628232268857 L 574.0958117848743 278.85628232268857"/></g><g id="sketch-9c3ee541"><title>Expression 17</title><path fill="#fa7e19" stroke="none" paint-order="stroke fill markers" d="" fill-opacity="0.4"/><path fill="#fa7e19" stroke="none" paint-order="stroke fill markers" d="" fill-opacity="0.4"/><path fill="#fa7e19" stroke="none" class="dcg-svg-region" paint-order="stroke fill markers" d=" M 416.33399734659247 264.50099601988865 L 425.9041882151257 278.85628232268857 L 425.9041882151257 278.85628232268857 L 423.828125 274.60990405916164 L 421.142578125 267.9554469688515 L 419.189453125 261.671536949728 L 417.724609375 255.1907898907088 L 416.748046875 248.31338083289836 L 416.33399734659247 240.0000010536712 L 416.33399734659247 264.50099601988865 M 435.6342733233359 293.45140998500386 L 500 390 L 564.3657266766642 293.45140998500375 L 564.3657266766642 293.45140998500375 L 561.279296875 296.96356532473726 L 555.908203125 302.24365689235924 L 550.048828125 307.04561733114406 L 543.9453125 311.1955722589357 L 537.353515625 314.86464366076206 L 530.517578125 317.90171644697256 L 523.4375 320.31614777708154 L 516.357421875 322.05141528092776 L 509.033203125 323.1769273374684 L 501.708984375 323.6485467441366 L 494.384765625 323.47735706713416 L 487.060546875 322.6593645803422 L 479.736328125 321.175018337801 L 472.65625 319.071608912033 L 465.8203125 316.36588873575914 L 459.228515625 313.0594693510645 L 452.880859375 309.13600065639804 L 446.77734375 304.55500648047627 L 440.91796875 299.23945968165157 L 435.6342733233359 293.45140998500386 L 435.6342733233359 293.45140998500386 M 574.0958117848743 278.85628232268857 L 583.6660026534075 264.50099601988865 L 583.6660026534075 240.0000010536712 L 583.49609375 245.32938350010676 L 583.251953125 248.31338083289836 L 582.51953125 253.8031504476432 L 581.298828125 259.76108664779616 L 579.58984375 265.7964488224752 L 577.1484375 272.3746597095412 L 574.0958117848743 278.85628232268857 L 574.0958117848743 278.85628232268857" fill-opacity="0.4"/></g><g id="sketch-9c3ee541"><title>Expression 18</title><path fill="#000000" stroke="none" paint-order="stroke fill markers" d="" fill-opacity="0.4"/><g><path fill="none" stroke="#000000" class="dcg-svg-curve" paint-order="fill stroke markers" d=" M 416.3339973465924 240 L 416.3339973465924 240 L 416.74804687500006 248.31338083289796 L 417.724609375 255.19078989070863 L 419.189453125 261.67153694972785 L 421.142578125 267.95544696885145 L 423.828125 274.6099040591615 L 427.001953125 280.8813545817075 L 430.908203125 287.18393375486755 L 435.546875 293.34599026857 L 440.91796874999994 299.2394596816515 L 446.77734375 304.55500648047627 L 452.880859375 309.13600065639804 L 459.228515625 313.0594693510644 L 465.82031250000006 316.3658887357591 L 472.65625000000006 319.071608912033 L 479.736328125 321.175018337801 L 487.06054687500006 322.6593645803421 L 494.38476562499994 323.47735706713416 L 501.708984375 323.6485467441366 L 509.033203125 323.17692733746827 L 516.357421875 322.05141528092776 L 523.4375 320.3161477770815 L 530.517578125 317.90171644697256 L 537.353515625 314.864643660762 L 543.9453125 311.1955722589357 L 550.048828125 307.04561733114406 L 555.908203125 302.2436568923592 L 561.279296875 296.96356532473726 L 566.40625 290.89410536533177 L 571.044921875 284.1884495742398 L 574.70703125 277.66775121787225 L 577.63671875 271.18557201228464 L 579.8339843749999 265.0306799510574 L 581.5429687500001 258.7281672204329 L 582.7636718749999 252.25457538094832 L 583.49609375 245.32938350010613 L 583.6660026534075 240" stroke-linecap="round" stroke-linejoin="round" stroke-miterlimit="10" stroke-width="10" stroke-dasharray=""/></g><path fill="#000000" stroke="none" paint-order="stroke fill markers" d="" fill-opacity="0.4"/><g><path fill="none" stroke="#000000" class="dcg-svg-curve" paint-order="fill stroke markers" d=" M 416.3339973465924 240 L 416.3339973465924 240 L 416.74804687500006 231.68661916710198 L 417.724609375 224.80921010929137 L 419.189453125 218.3284630502721 L 421.142578125 212.04455303114855 L 423.828125 205.39009594083842 L 427.001953125 199.1186454182925 L 430.908203125 192.8160662451324 L 435.546875 186.65400973142994 L 440.91796874999994 180.76054031834843 L 446.77734375 175.4449935195238 L 452.880859375 170.86399934360196 L 459.228515625 166.94053064893558 L 465.82031250000006 163.63411126424091 L 472.65625000000006 160.928391087967 L 479.736328125 158.82498166219898 L 487.06054687500006 157.34063541965781 L 494.38476562499994 156.5226429328659 L 501.708984375 156.35145325586342 L 509.033203125 156.82307266253173 L 516.357421875 157.9485847190722 L 523.4375 159.68385222291852 L 530.517578125 162.0982835530274 L 537.353515625 165.135356339238 L 543.9453125 168.80442774106427 L 550.048828125 172.954382668856 L 555.908203125 177.75634310764082 L 561.279296875 183.0364346752628 L 566.40625 189.10589463466818 L 571.044921875 195.81155042576012 L 574.70703125 202.33224878212775 L 577.63671875 208.8144279877153 L 579.8339843749999 214.96932004894262 L 581.5429687500001 221.2718327795671 L 582.7636718749999 227.74542461905168 L 583.49609375 234.6706164998938 L 583.6660026534075 240" stroke-linecap="round" stroke-linejoin="round" stroke-miterlimit="10" stroke-width="10" stroke-dasharray=""/></g></g><g id="sketch-9c3ee541"><title>Expression 19</title><path fill="#000000" stroke="none" paint-order="stroke fill markers" d="" fill-opacity="0.4"/><g><path fill="none" stroke="#000000" class="dcg-svg-curve" paint-order="fill stroke markers" d=" M 430 285 L 430 285 L 500 390 L 570 285" stroke-linecap="round" stroke-linejoin="round" stroke-miterlimit="10" stroke-width="10" stroke-dasharray=""/></g></g><g id="sketch-9c3ee541"><title>Expression 21</title><path fill="#000000" stroke="none" paint-order="stroke fill markers" d="" fill-opacity="0.4"/><g><path fill="none" stroke="#000000" class="dcg-svg-curve" paint-order="fill stroke markers" d=" M 428.93157492225134 275.18653869628906 L 428.93157492225134 275.18653869628906 L 430.4954980832641 273.69873529068786 L 432.99694776602666 272.5178867189465 L 434.0884772385351 272.3083906995131 L 438.231564416586 272.9606628417969 L 441.15042856359537 275.2936911419821 L 442.31319427490234 277.44884732104697 L 442.7374473262751 279.6382904052735 L 442.31319427490234 282.5491075311606 L 440.9548203114293 284.9531649789601 L 439.4838098986775 286.31591796875 L 436.8567859405866 287.5195472290703 L 434.6748053047975 287.7385512960062 L 432.3289394378662 287.26955907069487 L 431.87465619923796 287.08704510329517" stroke-linecap="round" stroke-linejoin="round" stroke-miterlimit="10" stroke-width="10" stroke-dasharray=""/></g><g><path fill="none" stroke="#000000" class="dcg-svg-curve" paint-order="fill stroke markers" d=" M 427.2594190997492 280.2756447998912 L 427.2594190997492 280.2756447998912 L 427.3960069600032 278.52535247802734 L 428.0908266677322 276.499453045396 L 428.93157492225134 275.18653869628906" stroke-linecap="round" stroke-linejoin="round" stroke-miterlimit="10" stroke-width="10" stroke-dasharray=""/></g><g><path fill="none" stroke="#000000" class="dcg-svg-curve" paint-order="fill stroke markers" d=" M 568.125343800762 287.08704510329517 L 568.125343800762 287.08704510329517 L 566.5616989135742 287.58564798133614 L 564.3429756164551 287.71786481024355 L 562.1242523193359 287.1916852092317 L 559.9055290222168 285.83362911749373 L 558.422196935152 284.0900421142578 L 557.420675900951 281.5971785058183 L 557.2625526737248 279.6382904052735 L 557.6991202217796 277.41241455078125 L 559.3852176682171 274.66455000072267 L 562.1242523193359 272.80897227379893 L 566.3537453929032 272.37380204637736 L 568.2321638293 272.9606628417968 L 569.5045019167359 273.69873529068786 L 571.8046419528516 276.2994766235352 L 572.5138521356965 278.11870077729947 L 572.7405809002507 280.2756447998912" stroke-linecap="round" stroke-linejoin="round" stroke-miterlimit="10" stroke-width="10" stroke-dasharray=""/></g><path fill="#000000" stroke="none" class="dcg-svg-region" paint-order="stroke fill markers" d=" M 428.93157492225134 275.18653869628906 L 430.4954980832641 273.69873529068786 L 432.99694776602666 272.5178867189465 L 434.0884772385351 272.3083906995131 L 438.231564416586 272.9606628417969 L 441.15042856359537 275.2936911419821 L 442.31319427490234 277.44884732104697 L 442.7374473262751 279.6382904052735 L 442.31319427490234 282.5491075311606 L 440.9548203114293 284.9531649789601 L 439.4838098986775 286.31591796875 L 436.8567859405866 287.5195472290703 L 434.6748053047975 287.7385512960062 L 432.3289394378662 287.26955907069487 L 431.0809075832367 286.45503520965576 L 430.94223737716675 286.31591796875 L 430.94223737716675 286.31591796875 L 427.4754822254181 281.1685800552368 L 427.2627924445026 279.63829040527344 L 427.48614786430346 278.11870077729947 L 428.1953580471484 276.2994766235352 L 428.93157492225134 275.18653869628906 L 428.93157492225134 275.18653869628906 M 569.751113653183 285.2029800415039 L 569.751113653183 285.34209728240967 L 568.7804222106934 286.5941524505615 L 567.192564626087 287.4288558959961 L 565.137956196412 287.7442504432209 L 562.80666844655 287.4288558959961 L 560.5161901013225 286.31591796875 L 559.0451796885708 284.9531649789601 L 557.6868057250977 282.5491075311606 L 557.420675900951 281.5971785058183 L 557.2625526737248 279.6382904052735 L 557.6991202217796 277.41241455078125 L 559.3852176682171 274.66455000072267 L 562.1242523193359 272.80897227379893 L 566.3537453929032 272.37380204637736 L 568.2321638293 272.9606628417968 L 569.5045019167359 273.69873529068786 L 571.8046419528516 276.2994766235352 L 572.5138521356965 278.11870077729947 L 572.7405809002507 280.2756447998912 L 572.5245177745819 281.1685800552368 L 569.751113653183 285.2029800415039 L 569.751113653183 285.2029800415039"/></g><g id="sketch-9c3ee541"><title>Expression 27</title><g><path fill="none" stroke="#5a7300" class="dcg-svg-curve" paint-order="fill stroke markers" d=" M 741.8915815748047 695.3334294108819 L 741.8915815748047 695.3334294108819 L 740.5319869617497 694.0906946188672 L 740.3529094811524 692.2844863640632 L 741.3762663016363 689.2152780613523 L 743.8921051125532 684.9579787418857 L 749.0673799758013 678.0830475598915 L 759.7171547268397 665.563819354215 L 792.7194855645565 628.3518968135523 L 799.5131926404995 621.4323482665294 L 803.5698354620552 617.8934825397229 L 806.1301625584574 616.1158950700525 L 809.6403442474018 614.9284029403863" stroke-linecap="round" stroke-linejoin="round" stroke-miterlimit="10" stroke-width="10" stroke-dasharray=""/></g><g><path fill="none" stroke="#5a7300" class="dcg-svg-curve" paint-order="fill stroke markers" d=" M 757.1509693108176 561.6153809123118 L 757.1509693108176 561.6153809123118 L 756.5988034011599 561.6476197032102 L 754.5725839061598 560.3144679260778 L 753.9794236300045 558.7715496800773 L 753.5912706160294 555.5586464206713 L 753.7795963270506 550.5806479125707 L 754.6390103146491 543.7401009366233 L 756.8510819690123 531.2850016060056 L 764.6941906744056 492.12086237880334 L 768.5717739802249 474.4633441053149 L 770.5797902107038 467.2572750713863 L 772.6030696700891 461.9901477852982 L 775.6206056250019 458.10820406060395" stroke-linecap="round" stroke-linejoin="round" stroke-miterlimit="10" stroke-width="10" stroke-dasharray=""/></g><g><path fill="none" stroke="#5a7300" class="dcg-svg-curve" paint-order="fill stroke markers" d=" M 703.5069624871167 438.1824601000642 L 703.5069624871167 438.1824601000642 L 701.2431216215582 438.62596179335367 L 699.7794144442457 437.7278539536356 L 697.7245467558416 435.2323139352436 L 695.3394967643269 430.8837502099499 L 691.9975050012318 422.93116606389765 L 687.0950591584264 409.1966671108979 L 672.1113325609517 364.51144334049 L 668.7742441838009 353.16797392911815 L 667.624782250705 348.11644681975326 L 667.1871467316062 345.3207220115504 L 667.0421239423277 342.0246358469818 L 667.7485483080058 339.30779731538445" stroke-linecap="round" stroke-linejoin="round" stroke-miterlimit="10" stroke-width="10" stroke-dasharray=""/></g><g><path fill="none" stroke="#5a7300" class="dcg-svg-curve" paint-order="fill stroke markers" d=" M 595.3334294108819 358.1084184251953 L 595.3334294108819 358.1084184251953 L 594.3644882860856 359.3251485174987 L 592.4919607649097 359.67069530270254 L 589.3986426517031 358.7102786810549 L 585.131825372847 356.2250138930865 L 578.2543854809711 351.070837381622 L 567.1574939498407 341.674129502261 L 530.2574771744542 309.0437362505748 L 521.6519445731166 300.7182010191636 L 518.115786847548 296.7120735396466 L 516.3374108915028 294.23430838363527 L 514.9284029403863 290.35965575259826" stroke-linecap="round" stroke-linejoin="round" stroke-miterlimit="10" stroke-width="10" stroke-dasharray=""/></g><g><path fill="none" stroke="#5a7300" class="dcg-svg-curve" paint-order="fill stroke markers" d=" M 461.6153809123118 342.84903068918237 L 461.6153809123118 342.84903068918237 L 461.1541444571065 344.73169234105944 L 460.5012261609627 345.311905305409 L 458.9678001377732 345.9688656759589 L 455.7625312193684 346.4014407114141 L 450.79091958114907 346.2386083781661 L 442.21629670797313 345.1208131863593 L 425.99364208319685 342.1129177804073 L 377.0557956480873 332.05585269081917 L 367.5692367490833 329.51934010116224 L 362.3431145215627 327.563630386161 L 359.23473942618693 325.70508459968306 L 358.10820406060395 324.3793943749981" stroke-linecap="round" stroke-linejoin="round" stroke-miterlimit="10" stroke-width="10" stroke-dasharray=""/></g><g><path fill="none" stroke="#5a7300" class="dcg-svg-curve" paint-order="fill stroke markers" d=" M 338.18246010006425 396.49303751288335 L 338.18246010006425 396.49303751288335 L 338.69295451338235 398.51655325115 L 337.86137464300083 400.06446038233366 L 335.4016449400976 402.1630763017036 L 331.07328195625814 404.56961296968575 L 323.1371616942585 407.92352625337503 L 309.418653772932 412.8289309352259 L 262.6062117311775 428.4895134098997 L 251.01822694464414 431.75616836281904 L 245.68704774720467 432.7675156037991 L 242.49589280603556 432.97597991941376 L 239.3077973153845 432.25145169199425" stroke-linecap="round" stroke-linejoin="round" stroke-miterlimit="10" stroke-width="10" stroke-dasharray=""/></g><g><path fill="none" stroke="#5a7300" class="dcg-svg-curve" paint-order="fill stroke markers" d=" M 258.1084184251953 504.6665705891181 L 258.1084184251953 504.6665705891181 L 259.0948591709981 505.32696810546037 L 259.68577197558466 507.29718673012815 L 259.37549779321483 508.90932540598556 L 258.0656423366545 511.87139521921614 L 255.38914698052372 516.0814713380659 L 250.09613522657622 522.9455571411879 L 238.09163681532823 536.9365031556376 L 206.07791090043946 572.9283661659634 L 199.0553673364364 579.8894697541409 L 194.5812122298155 583.4406744912147 L 190.35965575259826 585.0715970596137" stroke-linecap="round" stroke-linejoin="round" stroke-miterlimit="10" stroke-width="10" stroke-dasharray=""/></g><g><path fill="none" stroke="#5a7300" class="dcg-svg-curve" paint-order="fill stroke markers" d=" M 242.8490306891823 638.3846190876881 L 242.8490306891823 638.3846190876881 L 245.18114688966617 639.3142321914153 L 245.9121447899447 640.8367232228571 L 246.39245191174314 644.033923564102 L 246.25611698550398 648.9990357554557 L 245.42690731579162 655.8262873389685 L 243.23653542311712 668.2597656769725 L 235.84029693955085 705.2508454950486 L 232.1229574149922 722.6589477677984 L 229.61655447495258 732.1201330649772 L 227.7215948156296 737.3088655960097 L 226.05951395447488 740.3118007354984 L 224.37939437499813 741.8917959393959" stroke-linecap="round" stroke-linejoin="round" stroke-miterlimit="10" stroke-width="10" stroke-dasharray=""/></g><g><path fill="none" stroke="#5a7300" class="dcg-svg-curve" paint-order="fill stroke markers" d=" M 741.8915815748047 695.3334294108819 L 741.8915815748047 695.3334294108819 L 741.5139236817342 694.4748061427529 L 742.1677323534054 692.9812950566194 L 745.2717484666202 688.9083780466841 L 755.0715751926505 678.2095095892874 L 770.6116088700794 661.1270929374249 L 783.6887041185431 645.5941394049026 L 807.5135018191588 616.1887194862597 L 809.6403442474018 614.9284029403863" stroke-linecap="round" stroke-linejoin="round" stroke-miterlimit="10" stroke-width="10" stroke-dasharray=""/></g><g><path fill="none" stroke="#5a7300" class="dcg-svg-curve" paint-order="fill stroke markers" d=" M 757.1509693108176 561.6153809123118 L 757.1509693108176 561.6153809123118 L 756.8856661723906 561.6047439378153 L 756.2233596789354 560.0571271163483 L 756.4718812113167 556.7121432173437 L 757.8036322784462 549.7970338932695 L 766.2784927322643 510.51302900473564 L 769.0022676271392 494.2851108318827 L 774.1275637410157 461.21834722675936 L 775.6206056250019 458.10820406060395" stroke-linecap="round" stroke-linejoin="round" stroke-miterlimit="10" stroke-width="10" stroke-dasharray=""/></g><g><path fill="none" stroke="#5a7300" class="dcg-svg-curve" paint-order="fill stroke markers" d=" M 703.5069624871167 438.1824601000642 L 703.5069624871167 438.1824601000642 L 702.2864634002672 437.7893206465493 L 700.7099735282051 434.869172135083 L 698.3676586210622 428.26210233304244 L 685.4356375124223 388.17410417618066 L 678.8530280795982 370.7572596856297 L 668.2716880692923 343.66862009923096 L 667.6481971239256 341.08863272372145 L 667.7485483080058 339.30779731538445" stroke-linecap="round" stroke-linejoin="round" stroke-miterlimit="10" stroke-width="10" stroke-dasharray=""/></g><g><path fill="none" stroke="#5a7300" class="dcg-svg-curve" paint-order="fill stroke markers" d=" M 595.3334294108819 358.1084184251953 L 595.3334294108819 358.1084184251953 L 594.6849779399345 358.5077456868076 L 593.1592419905014 357.93684479658504 L 589.074747677122 354.87006419052744 L 579.7364988112422 346.3561977107296 L 561.3134060960579 329.55158295134714 L 547.4049960800534 317.7850977358885 L 528.9812106919559 303.21131984788536 L 518.2474579009237 294.50768456724177 L 516.4175180612887 292.7350485354462 L 514.9284029403863 290.35965575259826" stroke-linecap="round" stroke-linejoin="round" stroke-miterlimit="10" stroke-width="10" stroke-dasharray=""/></g><g><path fill="none" stroke="#5a7300" class="dcg-svg-curve" paint-order="fill stroke markers" d=" M 461.6153809123118 342.84903068918237 L 461.6153809123118 342.84903068918237 L 460.26091943500126 343.76240753044465 L 456.92424076378177 343.5582282873157 L 450.0163623032019 342.2443713172475 L 408.7732833445199 333.40516298325207 L 390.37218359491567 330.40990249266565 L 361.5300915916764 325.954578905291 L 358.89267452745946 325.0385375974227 L 358.10820406060395 324.3793943749981" stroke-linecap="round" stroke-linejoin="round" stroke-miterlimit="10" stroke-width="10" stroke-dasharray=""/></g><g><path fill="none" stroke="#5a7300" class="dcg-svg-curve" paint-order="fill stroke markers" d=" M 338.18246010006425 396.49303751288335 L 338.18246010006425 396.49303751288335 L 337.94012965226705 397.57622390993527 L 335.0650768877322 399.2070808072399 L 328.4751604837288 401.56386058895987 L 286.5056943219847 415.16612397462586 L 269.03000355210145 421.8324288145614 L 243.9684025948714 431.6373596440882 L 241.4406545322982 432.2915242789072 L 239.3077973153845 432.25145169199425" stroke-linecap="round" stroke-linejoin="round" stroke-miterlimit="10" stroke-width="10" stroke-dasharray=""/></g><g><path fill="none" stroke="#5a7300" class="dcg-svg-curve" paint-order="fill stroke markers" d=" M 258.1084184251953 504.6665705891181 L 258.1084184251953 504.6665705891181 L 258.48574293350055 505.0875922217343 L 258.03719919155395 506.66123880388113 L 255.01120318901678 510.7587650699932 L 246.51424236063627 520.094478058009 L 229.7147648526174 538.5004684191221 L 216.6389178396555 554.0020284656352 L 192.97490545400672 583.3535830684448 L 190.35965575259826 585.0715970596137" stroke-linecap="round" stroke-linejoin="round" stroke-miterlimit="10" stroke-width="10" stroke-dasharray=""/></g><g><path fill="none" stroke="#5a7300" class="dcg-svg-curve" paint-order="fill stroke markers" d=" M 242.8490306891823 638.3846190876881 L 242.8490306891823 638.3846190876881 L 243.74064478422162 639.5364772629805 L 243.58710248311024 642.8639713861302 L 242.29212543780346 649.7644995817068 L 233.45007423695483 690.9776664307485 L 230.76063878495245 707.274766287672 L 226.03248113343216 738.1606785901698 L 225.21365130638645 740.7450499898947 L 224.37939437499813 741.8917959393959" stroke-linecap="round" stroke-linejoin="round" stroke-miterlimit="10" stroke-width="10" stroke-dasharray=""/></g><g><path fill="none" stroke="#5a7300" class="dcg-svg-curve" paint-order="fill stroke markers" d=" M 741.8915815748047 695.3334294108819 L 741.8915815748047 695.3334294108819 L 751.3339077290124 687.5502746597821 L 761.3723923902756 678.3491318033804 L 771.0753628360162 668.4311213059897 L 780.3990564971 657.808503769037 L 789.3001644501951 646.4960071948852 L 797.7359639716401 634.5108097303674 L 805.6644504036799 621.8725155175791 L 809.6403442474018 614.9284029403863" stroke-linecap="round" stroke-linejoin="round" stroke-miterlimit="10" stroke-width="10" stroke-dasharray=""/></g><g><path fill="none" stroke="#5a7300" class="dcg-svg-curve" paint-order="fill stroke markers" d=" M 757.1509693108176 561.6153809123118 L 757.1509693108176 561.6153809123118 L 761.1997390365746 550.8361912841154 L 764.7759066724287 539.7540371549434 L 767.8799537100011 528.3344635036938 L 770.4916088662336 516.5976074917115 L 772.5914590160519 504.5646515626531 L 774.1609990480315 492.25778695384156 L 775.1826801734409 479.7001749401338 L 775.6399565887934 466.9159058756155 L 775.6206056250019 458.10820406060395" stroke-linecap="round" stroke-linejoin="round" stroke-miterlimit="10" stroke-width="10" stroke-dasharray=""/></g><g><path fill="none" stroke="#5a7300" class="dcg-svg-curve" paint-order="fill stroke markers" d=" M 703.5069624871167 438.1824601000642 L 703.5069624871167 438.1824601000642 L 701.7574719175352 427.5321327911954 L 699.3492684984385 416.15103530221916 L 696.3639962335362 404.71207787925823 L 692.79409002644 393.24280384909423 L 688.6332489694739 381.7712361916356 L 683.87646142831 370.32582108987043 L 678.5200276569551 358.935370282854 L 672.5615798889846 347.6290023280779 L 667.7485483080058 339.30779731538445" stroke-linecap="round" stroke-linejoin="round" stroke-miterlimit="10" stroke-width="10" stroke-dasharray=""/></g><g><path fill="none" stroke="#5a7300" class="dcg-svg-curve" paint-order="fill stroke markers" d=" M 595.3334294108819 358.1084184251953 L 595.3334294108819 358.1084184251953 L 587.7080023574339 348.84813097208496 L 578.5197569967302 338.80405486046874 L 568.6144475531335 329.09470817933203 L 558.0042904527165 319.76386039138924 L 546.7039697678998 310.85482968469216 L 534.7306200842295 302.410350409669 L 523.9468353478187 295.5738433050697 L 514.9284029403863 290.35965575259826" stroke-linecap="round" stroke-linejoin="round" stroke-miterlimit="10" stroke-width="10" stroke-dasharray=""/></g><g><path fill="none" stroke="#5a7300" class="dcg-svg-curve" paint-order="fill stroke markers" d=" M 461.6153809123118 342.84903068918237 L 461.6153809123118 342.84903068918237 L 449.2418050252547 338.2501342563289 L 436.2207413374937 334.20239338391104 L 422.74886556256445 330.80597101373576 L 410.867422185609 328.43718804539014 L 398.700388644672 326.58919343023234 L 386.27042595990093 325.28003997088166 L 373.60114583373286 324.5268015766287 L 360.71706866179005 324.34552742442094 L 358.10820406060395 324.3793943749981" stroke-linecap="round" stroke-linejoin="round" stroke-miterlimit="10" stroke-width="10" stroke-dasharray=""/></g><g><path fill="none" stroke="#5a7300" class="dcg-svg-curve" paint-order="fill stroke markers" d=" M 338.18246010006425 396.49303751288335 L 338.18246010006425 396.49303751288335 L 325.8770390111995 398.5581082082341 L 312.58129217779094 401.5212589478765 L 299.218453529161 405.27321391682455 L 287.74455630570134 409.1255689241291 L 276.2819466290358 413.5714225186032 L 264.8592531074173 418.61516038931995 L 253.50544188950656 424.25984639188846 L 242.24975744253817 430.50720368437726 L 239.3077973153845 432.25145169199425" stroke-linecap="round" stroke-linejoin="round" stroke-miterlimit="10" stroke-width="10" stroke-dasharray=""/></g><g><path fill="none" stroke="#5a7300" class="dcg-svg-curve" paint-order="fill stroke markers" d=" M 258.1084184251953 504.6665705891181 L 258.1084184251953 504.6665705891181 L 249.03026235718625 512.134501771895 L 238.98060885737175 521.3098465314071 L 229.2648999014694 531.2024510253941 L 219.92691180338807 541.8001430063991 L 211.00997197361886 553.0882823374075 L 202.55682634729288 565.0497780018228 L 194.609507487352 577.6651120069039 L 190.35965575259826 585.0715970596137" stroke-linecap="round" stroke-linejoin="round" stroke-miterlimit="10" stroke-width="10" stroke-dasharray=""/></g><g><path fill="none" stroke="#5a7300" class="dcg-svg-curve" paint-order="fill stroke markers" d=" M 242.8490306891823 638.3846190876881 L 242.8490306891823 638.3846190876881 L 238.9592050604573 648.7096601191679 L 235.3638177489707 659.7773339237278 L 232.2396885285131 671.1832431018008 L 229.60712333509122 682.9072948031434 L 227.4855720561069 694.9283494249636 L 225.89357861245463 707.2242570047342 L 224.8487325830235 719.7718958831213 L 224.36762247158202 732.5472135718912 L 224.37939437499813 741.8917959393959" stroke-linecap="round" stroke-linejoin="round" stroke-miterlimit="10" stroke-width="10" stroke-dasharray=""/></g><g><path fill="none" stroke="#5a7300" class="dcg-svg-curve" paint-order="fill stroke markers" d=" M 741.8915815748047 695.3334294108819 L 741.8915815748047 695.3334294108819 L 743.4777971217034 695.2430291905242 L 747.8202763324061 693.370127902664 L 753.3227180056354 690.030915607821 L 760.060535134135 685.1312071644261 L 767.930554787964 678.4846220114297 L 775.327264588441 671.3466865191364 L 783.635295195721 662.1994466190956 L 791.3190296599223 652.4685082450299 L 798.3224122050024 642.1971664525114 L 803.5442813830582 633.2535530650789 L 807.1867353234741 625.8631883731102 L 809.409258656509 620.1882817067765 L 810.2801803405616 616.3343683186743 L 809.6403442474018 614.9284029403863" stroke-linecap="round" stroke-linejoin="round" stroke-miterlimit="10" stroke-width="10" stroke-dasharray=""/></g><g><path fill="none" stroke="#5a7300" class="dcg-svg-curve" paint-order="fill stroke markers" d=" M 757.1509693108176 561.6153809123118 L 757.1509693108176 561.6153809123118 L 757.459391714852 561.5189924070256 L 759.5249112244865 559.5424454968893 L 763.0639472413551 553.8985791390725 L 766.6904237609225 546.3259885694147 L 769.7065500651295 538.6321399159837 L 772.8426947473502 528.8398327367674 L 775.3633071314708 518.8684730536454 L 777.3020020255667 508.7425036625117 L 778.6617847113203 498.4928204099698 L 779.4217747765231 488.15953180331485 L 779.5621625976274 479.8711181361296 L 779.2184279628418 471.617243952488 L 778.5426049976754 465.51445327477245 L 777.7662030303353 461.56078897178884 L 777.176551882869 459.6747461096817 L 775.6206056250019 458.10820406060395" stroke-linecap="round" stroke-linejoin="round" stroke-miterlimit="10" stroke-width="10" stroke-dasharray=""/></g><g><path fill="none" stroke="#5a7300" class="dcg-svg-curve" paint-order="fill stroke markers" d=" M 703.5069624871167 438.1824601000642 L 703.5069624871167 438.1824601000642 L 704.3731469576848 436.11603835294056 L 704.7857781938795 431.5158709172741 L 704.5947105051241 425.10678277410165 L 703.6825190733017 416.8349217737356 L 702.2526370744773 408.7171325652015 L 700.3911587934398 400.70698415815326 L 697.5141014657793 390.83011160146407 L 694.0590348688586 381.1124580256216 L 690.0418684813887 371.5815651951602 L 685.462482673296 362.2856699154618 L 680.2975394892703 353.3107976573644 L 675.6889177809147 346.4870593137638 L 671.8497607342919 341.7677281024679 L 668.8603434871212 339.21662647720063 L 667.7485483080058 339.30779731538445" stroke-linecap="round" stroke-linejoin="round" stroke-miterlimit="10" stroke-width="10" stroke-dasharray=""/></g><g><path fill="none" stroke="#5a7300" class="dcg-svg-curve" paint-order="fill stroke markers" d=" M 595.3334294108819 358.1084184251953 L 595.3334294108819 358.1084184251953 L 595.3259572476323 356.8729400254254 L 593.4999291567302 352.424440429428 L 590.1768347238075 346.8965478534499 L 585.2904211983285 340.14319812849027 L 578.6570344231753 332.26011333641367 L 571.5306891448612 324.85233659179335 L 563.9604399782479 317.8757331022803 L 555.9787944538579 311.328546255829 L 547.6117824731743 305.2345438591944 L 538.8828475988245 299.64647099901407 L 529.8146243487228 294.67655772763777 L 522.3297314245159 291.349561286721 L 518.5108000076751 290.0989066224321 L 516.5777324008603 289.736528839068 L 514.9284029403863 290.35965575259826" stroke-linecap="round" stroke-linejoin="round" stroke-miterlimit="10" stroke-width="10" stroke-dasharray=""/></g><g><path fill="none" stroke="#5a7300" class="dcg-svg-curve" paint-order="fill stroke markers" d=" M 461.6153809123118 342.84903068918237 L 461.6153809123118 342.84903068918237 L 459.78030598307845 340.663411980516 L 456.01200971050423 338.12746742176773 L 450.3626475373863 335.1408046840156 L 442.73528084837704 331.83308259723435 L 433.02462502983246 328.4113847166361 L 423.12675375835 325.6357908836973 L 413.0631099018077 323.4515724610553 L 402.8617542960617 321.84462868946906 L 392.5582435188878 320.8254380486831 L 382.20153808443683 320.43224972608726 L 371.8738209265556 320.7622760195335 L 363.7664981876676 321.75251002131404 L 359.9040457319037 322.7364759435509 L 358.20854473000446 323.705443592902 L 358.10820406060395 324.3793943749981" stroke-linecap="round" stroke-linejoin="round" stroke-miterlimit="10" stroke-width="10" stroke-dasharray=""/></g><g><path fill="none" stroke="#5a7300" class="dcg-svg-curve" paint-order="fill stroke markers" d=" M 338.18246010006425 396.49303751288335 L 338.18246010006425 396.49303751288335 L 336.43447993003656 395.6955652275058 L 331.7906455484303 395.22076538714447 L 325.36901371560066 395.3870675793057 L 317.09067537964467 396.28046341959543 L 306.9564139842339 398.1194352518805 L 296.9854907303243 400.61824786150646 L 287.16624342294244 403.7150269265319 L 277.51442534656803 407.38188312644434 L 268.06459869662876 411.60894170041536 L 258.875766870356 416.4032788445685 L 250.06073421040554 421.80391608129355 L 243.47428816622647 426.6585214542033 L 240.53111229020493 429.37704772466634 L 239.3301779848236 430.9226129978942 L 239.3077973153845 432.25145169199425" stroke-linecap="round" stroke-linejoin="round" stroke-miterlimit="10" stroke-width="10" stroke-dasharray=""/></g><g><path fill="none" stroke="#5a7300" class="dcg-svg-curve" paint-order="fill stroke markers" d=" M 258.1084184251953 504.6665705891181 L 258.1084184251953 504.6665705891181 L 257.2675104585054 504.60884045428224 L 254.7400536234925 505.38934295138694 L 250.74549745304103 507.42778885632816 L 243.66915729782716 512.0607000682537 L 235.54721285590034 518.4595956756261 L 227.94674356660545 525.3840934388961 L 220.78886562449554 532.7702625548272 L 212.76337707206727 542.1908684800117 L 205.38102610758222 552.1745362091798 L 199.77931138373776 560.8947004674757 L 194.7915645033304 569.9547124552665 L 191.44035338599434 577.4333343202303 L 190.16200524200713 581.2488650961421 L 189.7215171758242 584.10915322428 L 190.35965575259826 585.0715970596137" stroke-linecap="round" stroke-linejoin="round" stroke-miterlimit="10" stroke-width="10" stroke-dasharray=""/></g><g><path fill="none" stroke="#5a7300" class="dcg-svg-curve" paint-order="fill stroke markers" d=" M 242.8490306891823 638.3846190876881 L 242.8490306891823 638.3846190876881 L 240.8596405733325 639.9809674061108 L 238.26700437794273 643.7533203040655 L 235.25461168225547 649.4009294066896 L 231.927906060981 657.0244731890557 L 229.12168258897464 664.7735545262008 L 226.20764647484555 674.6308938253833 L 223.8926141592887 684.6594655804847 L 222.15568242172174 694.8326193374617 L 221.00210290356068 705.1167794741999 L 220.5187240897253 713.3944353642981 L 220.46241095744028 721.6812385584471 L 220.91069536074997 729.91927655203 L 221.70675098385084 735.9851784553591 L 222.65425376903715 739.86430457849 L 223.5219260102096 741.6115484986873 L 224.37939437499813 741.8917959393959" stroke-linecap="round" stroke-linejoin="round" stroke-miterlimit="10" stroke-width="10" stroke-dasharray=""/></g><g><path fill="none" stroke="#5a7300" class="dcg-svg-curve" paint-order="fill stroke markers" d=" M 741.8915815748047 695.3334294108819 L 741.8915815748047 695.3334294108819 L 744.4597338416879 695.6271407144098 L 747.6122009701646 695.0717211342878 L 752.5035494872657 693.3280422476736 L 758.7757103454715 690.1425705776785 L 766.2454757921065 685.3084233120156 L 773.0810120721089 679.9933401695808 L 779.4260156616351 674.2845341510886 L 786.7478924116324 666.6674236559309 L 793.4173361994274 658.5738823788594 L 799.4110312863921 650.0518733731258 L 804.6513430288924 641.1425854224963 L 808.1879281926963 633.7622688112501 L 810.334100409128 628.0919680655039 L 811.4213170028274 624.2511250807404 L 812.065250684112 620.3615794144696 L 812.0917036027625 618.3957916658898 L 811.663519601263 616.4071927348815 L 809.6403442474018 614.9284029403863" stroke-linecap="round" stroke-linejoin="round" stroke-miterlimit="10" stroke-width="10" stroke-dasharray=""/></g><g><path fill="none" stroke="#5a7300" class="dcg-svg-curve" paint-order="fill stroke markers" d=" M 757.1509693108176 561.6153809123118 L 757.1509693108176 561.6153809123118 L 757.7462544860828 561.4761166416307 L 761.1756869972621 559.2851046871598 L 764.779738055912 555.3099258843514 L 768.7447839984584 549.4160399905995 L 771.9396532747287 543.4902902189299 L 775.4460210045999 535.5042078731519 L 778.2891201762396 527.4193492421832 L 780.5639736608804 519.2475745827024 L 782.3136301821968 511.00715803078504 L 783.5541598280407 502.7212096478587 L 784.282176535681 494.418638773895 L 784.4737650609779 486.13743828826784 L 784.0731645422844 477.9327241322266 L 783.3135259590114 471.88353464058764 L 782.0330788773681 466.0066809134735 L 780.740595208672 462.2725238383091 L 779.8681569422516 460.51317109024416 L 778.7010459537958 458.9029455511428 L 776.4535183425593 457.8526845173895 L 775.6206056250019 458.10820406060395" stroke-linecap="round" stroke-linejoin="round" stroke-miterlimit="10" stroke-width="10" stroke-dasharray=""/></g><g><path fill="none" stroke="#5a7300" class="dcg-svg-curve" paint-order="fill stroke markers" d=" M 703.5069624871167 438.1824601000642 L 703.5069624871167 438.1824601000642 L 705.4164887363936 435.2793972061362 L 706.3138727867316 432.4201970990217 L 707.1423634484133 427.38426527523956 L 707.431949092713 422.6814327570079 L 707.3039761153349 415.91975444660267 L 706.701031995645 409.37090454054066 L 705.3219810108654 400.8697005415113 L 703.3835893297263 392.58529394835466 L 700.9430697460041 384.5036345204255 L 698.0318781742492 376.6313169833919 L 694.6659851297364 368.9899316775784 L 690.8484805029392 361.61729611678373 L 686.5664353422692 354.5760514237272 L 681.7767970463447 347.979715229937 L 677.7813144886854 343.46780431937293 L 674.8488526921342 340.8051764851177 L 671.5253120823504 338.71231436227276 L 669.4664166687189 338.2806233539402 L 667.7485483080058 339.30779731538445" stroke-linecap="round" stroke-linejoin="round" stroke-miterlimit="10" stroke-width="10" stroke-dasharray=""/></g><g><path fill="none" stroke="#5a7300" class="dcg-svg-curve" paint-order="fill stroke markers" d=" M 595.3334294108819 358.1084184251953 L 595.3334294108819 358.1084184251953 L 595.6464469014812 356.0555371947343 L 595.1610856672769 352.73529327823246 L 593.4489797381092 347.77829271529174 L 590.2841793420209 341.47124805108336 L 585.4674018839437 333.9771999613514 L 580.1657123041875 327.12473990368403 L 572.9884208765347 319.2450722883041 L 565.2839569193428 312.03780817774685 L 557.1122402293418 305.4835929491118 L 548.5195951784489 299.6142580336966 L 541.3697255049977 295.46938414166755 L 533.9960903524013 291.912051724678 L 528.3304317037042 289.74435604043106 L 522.5556603749824 288.22668137590676 L 518.6424710610507 287.8945176500272 L 516.6578395706462 288.23726899087893 L 514.9284029403863 290.35965575259826" stroke-linecap="round" stroke-linejoin="round" stroke-miterlimit="10" stroke-width="10" stroke-dasharray=""/></g><g><path fill="none" stroke="#5a7300" class="dcg-svg-curve" paint-order="fill stroke markers" d=" M 461.6153809123118 342.84903068918237 L 461.6153809123118 342.84903068918237 L 459.539999257117 339.1139142055516 L 455.55589418386546 335.41208698899374 L 449.66195202806097 331.4019741551067 L 443.73822890046836 328.18249447722235 L 435.7553056780056 324.6528038296656 L 427.67339837400806 321.7908050718456 L 419.50408904193205 319.4990242470642 L 409.19759733312895 317.37166597764667 L 398.82940400774083 316.0398545835809 L 390.5313517814168 315.5588021385497 L 382.2775498377665 315.6350309401855 L 374.13719767686354 316.34924133814013 L 368.182321282948 317.4126089776005 L 362.49891866719565 319.1635666613646 L 359.0910228020174 321.12742446268084 L 357.86647983127693 323.03889659064157 L 358.10820406060395 324.3793943749981" stroke-linecap="round" stroke-linejoin="round" stroke-miterlimit="10" stroke-width="10" stroke-dasharray=""/></g><g><path fill="none" stroke="#5a7300" class="dcg-svg-curve" paint-order="fill stroke markers" d=" M 338.18246010006425 396.49303751288335 L 338.18246010006425 396.49303751288335 L 335.68165506892126 394.7552358862911 L 330.1534298787793 393.22760767709667 L 325.300094588537 392.68367271187003 L 318.4250414485929 392.58421536287426 L 309.64049099823427 393.26588002624453 L 301.1319338453162 394.62606084262336 L 292.84110304945506 396.5480201702667 L 282.7631493924522 399.65429329520214 L 273.0187908588597 403.4897627023536 L 263.66067444603243 408.03182520341346 L 256.51775221804905 412.18062353883704 L 249.77962130324877 416.82011102433466 L 245.10245056284106 420.6725916743757 L 240.95964190675392 424.95930581799803 L 238.81246713787164 428.2468917649554 L 238.27493971108623 430.23815735738765 L 239.3077973153845 432.25145169199425" stroke-linecap="round" stroke-linejoin="round" stroke-miterlimit="10" stroke-width="10" stroke-dasharray=""/></g><g><path fill="none" stroke="#5a7300" class="dcg-svg-curve" paint-order="fill stroke markers" d=" M 258.1084184251953 504.6665705891181 L 258.1084184251953 504.6665705891181 L 256.6583942210079 504.36946457055626 L 253.09148083946175 504.75339502513987 L 248.06242897849157 506.4313070323253 L 241.71921354175367 509.5748746520219 L 236.0094284176809 513.123170971251 L 228.99822289263386 518.3004322495435 L 222.50841974895593 523.8925271656356 L 215.02127522755126 531.3815156878903 L 208.1883930953768 539.3608507683552 L 202.02092678947145 547.7797744393149 L 196.58098009195936 556.59591692316 L 192.8446585424079 563.9085770904157 L 190.49665686653282 569.5319137383318 L 188.6950136077436 575.2661571327768 L 187.98039551033872 579.1493882517412 L 187.88647137662946 581.1111517000775 L 188.15598512658033 583.0923088001349 L 188.58022379310592 584.0507021254289 L 190.35965575259826 585.0715970596137" stroke-linecap="round" stroke-linejoin="round" stroke-miterlimit="10" stroke-width="10" stroke-dasharray=""/></g><g><path fill="none" stroke="#5a7300" class="dcg-svg-curve" paint-order="fill stroke markers" d=" M 242.8490306891823 638.3846190876881 L 242.8490306891823 638.3846190876881 L 239.41913846788793 640.2032124776761 L 235.60695532535897 644.1979947630332 L 231.5500183040536 650.0921986942111 L 228.3054978307414 656.013928323759 L 224.75227118815963 663.99369422632 L 221.87128333024424 672.0726383195972 L 219.5625338181004 680.2394645320758 L 217.78074432787184 688.476217018483 L 216.5084865141052 696.7600957908184 L 215.7479790466212 705.0626206023351 L 215.52166432115735 713.3465286655426 L 215.88264363219622 721.5581893887917 L 216.60565270640774 727.6174759210783 L 217.83481469513106 733.5134906676348 L 219.07014982015028 737.2735269188197 L 220.96514008683965 740.7161175726501 L 222.67606336212123 742.0447977530836 L 224.37939437499813 741.8917959393959" stroke-linecap="round" stroke-linejoin="round" stroke-miterlimit="10" stroke-width="10" stroke-dasharray=""/></g></g><g id="sketch-9c3ee541"><title>Expression 30</title><path fill="#ffffff" stroke="none" paint-order="stroke fill markers" d=""/><path fill="#ffffff" stroke="none" paint-order="stroke fill markers" d=""/><path fill="#ffffff" stroke="none" paint-order="stroke fill markers" d=""/><path fill="#ffffff" stroke="none" paint-order="stroke fill markers" d=""/><path fill="#ffffff" stroke="none" class="dcg-svg-region" paint-order="stroke fill markers" d=" M 405 640.000001393876 L 405.2734375 647.3748510313344 L 406.25 655.6124949959959 L 407.71484375 662.6602569193808 L 409.423828125 668.3986725725312 L 411.62109375 673.894884867998 L 414.306640625 678.921380835068 L 417.236328125 682.9924961018703 L 420.41015625 686.1750970481096 L 423.583984375 688.3253450479044 L 426.513671875 689.5114336776803 L 429.443359375 689.9876045121027 L 432.373046875 689.774236248447 L 435.302734375 688.8622966364944 L 438.232421875 687.211321950228 L 441.162109375 684.739571491043 L 444.091796875 681.2999399919051 L 447.021484375 676.6207083313052 L 449.462890625 671.3812611932209 L 451.416015625 665.7956798514601 L 452.880859375 660.1460938408889 L 454.1015625 653.2837773330622 L 454.833984375 645.7526411542026 L 455 640.000000912506 L 455 639.999999087494 L 454.833984375 634.2473588457975 L 454.1015625 626.7162226669378 L 452.880859375 619.8539061591111 L 451.416015625 614.2043201485399 L 449.462890625 608.6187388067791 L 447.021484375 603.3792916686948 L 444.091796875 598.700060008095 L 441.162109375 595.260428508957 L 438.232421875 592.788678049772 L 435.302734375 591.1377033635056 L 432.373046875 590.225763751553 L 429.443359375 590.0123954878973 L 426.513671875 590.4885663223197 L 423.583984375 591.6746549520956 L 420.41015625 593.8249029518904 L 417.236328125 597.0075038981297 L 414.306640625 601.078619164932 L 411.62109375 606.105115132002 L 409.423828125 611.6013274274688 L 407.71484375 617.3397430806193 L 406.25 624.3875050040041 L 405.2734375 632.6251489686656 L 405 639.999998606124 L 405 640.000001393876 M 545 640.000000912506 L 545.41015625 649.0198856645939 L 546.38671875 656.4210777488445 L 547.8515625 663.1902321082472 L 549.8046875 669.4719767255164 L 552.001953125 674.7027554344206 L 554.6875 679.523529384406 L 557.6171875 683.435743557114 L 560.791015625 686.4841739425799 L 563.720703125 688.3971251524557 L 566.650390625 689.5491722245655 L 569.580078125 689.9929461271846 L 572.509765625 689.7474050180537 L 575.439453125 688.8021454323856 L 578.369140625 687.1150712701987 L 581.298828125 684.6020843908312 L 584.228515625 681.1120100753602 L 587.158203125 676.3646017726712 L 589.599609375 671.0390278422126 L 591.552734375 665.3361118532969 L 593.017578125 659.5131850049675 L 593.994140625 654.0401161915028 L 594.7265625 647.3748510313344 L 595 640.000001393876 L 595 639.999998606124 L 594.7265625 632.6251489686656 L 593.994140625 625.9598838084972 L 593.017578125 620.4868149950325 L 591.552734375 614.6638881467031 L 589.599609375 608.9609721577874 L 587.158203125 603.6353982273288 L 584.228515625 598.8879899246398 L 581.298828125 595.3979156091688 L 578.369140625 592.8849287298013 L 575.439453125 591.1978545676144 L 572.509765625 590.2525949819463 L 569.580078125 590.0070538728154 L 566.650390625 590.4508277754345 L 563.720703125 591.6028748475443 L 560.791015625 593.5158260574201 L 557.6171875 596.564256442886 L 554.6875 600.476470615594 L 552.001953125 605.2972445655794 L 549.8046875 610.5280232744836 L 547.8515625 616.8097678917529 L 546.38671875 623.5789222511555 L 545.41015625 630.9801143354061 L 545 639.999999087494 L 545 640.000000912506"/></g><g id="sketch-9c3ee541"><title>Expression 31</title><path fill="#fa7e19" stroke="none" paint-order="stroke fill markers" d="" fill-opacity="0.4"/><path fill="#fa7e19" stroke="none" paint-order="stroke fill markers" d="" fill-opacity="0.4"/><path fill="#fa7e19" stroke="none" paint-order="stroke fill markers" d="" fill-opacity="0.4"/><path fill="#fa7e19" stroke="none" paint-order="stroke fill markers" d="" fill-opacity="0.4"/><path fill="#fa7e19" stroke="none" class="dcg-svg-region" paint-order="stroke fill markers" d=" M 405 640.000001393876 L 405.2734375 647.3748510313344 L 406.25 655.6124949959959 L 407.71484375 662.6602569193808 L 409.423828125 668.3986725725312 L 411.62109375 673.894884867998 L 414.306640625 678.921380835068 L 417.236328125 682.9924961018703 L 420.41015625 686.1750970481096 L 423.583984375 688.3253450479044 L 426.513671875 689.5114336776803 L 429.443359375 689.9876045121027 L 432.373046875 689.774236248447 L 435.302734375 688.8622966364944 L 438.232421875 687.211321950228 L 441.162109375 684.739571491043 L 444.091796875 681.2999399919051 L 447.021484375 676.6207083313052 L 449.462890625 671.3812611932209 L 451.416015625 665.7956798514601 L 452.880859375 660.1460938408889 L 454.1015625 653.2837773330622 L 454.833984375 645.7526411542026 L 455 640.000000912506 L 455 639.999999087494 L 454.833984375 634.2473588457975 L 454.1015625 626.7162226669378 L 452.880859375 619.8539061591111 L 451.416015625 614.2043201485399 L 449.462890625 608.6187388067791 L 447.021484375 603.3792916686948 L 444.091796875 598.700060008095 L 441.162109375 595.260428508957 L 438.232421875 592.788678049772 L 435.302734375 591.1377033635056 L 432.373046875 590.225763751553 L 429.443359375 590.0123954878973 L 426.513671875 590.4885663223197 L 423.583984375 591.6746549520956 L 420.41015625 593.8249029518904 L 417.236328125 597.0075038981297 L 414.306640625 601.078619164932 L 411.62109375 606.105115132002 L 409.423828125 611.6013274274688 L 407.71484375 617.3397430806193 L 406.25 624.3875050040041 L 405.2734375 632.6251489686656 L 405 639.999998606124 L 405 640.000001393876 M 545 640.000000912506 L 545.41015625 649.0198856645939 L 546.38671875 656.4210777488445 L 547.8515625 663.1902321082472 L 549.8046875 669.4719767255164 L 552.001953125 674.7027554344206 L 554.6875 679.523529384406 L 557.6171875 683.435743557114 L 560.791015625 686.4841739425799 L 563.720703125 688.3971251524557 L 566.650390625 689.5491722245655 L 569.580078125 689.9929461271846 L 572.509765625 689.7474050180537 L 575.439453125 688.8021454323856 L 578.369140625 687.1150712701987 L 581.298828125 684.6020843908312 L 584.228515625 681.1120100753602 L 587.158203125 676.3646017726712 L 589.599609375 671.0390278422126 L 591.552734375 665.3361118532969 L 593.017578125 659.5131850049675 L 593.994140625 654.0401161915028 L 594.7265625 647.3748510313344 L 595 640.000001393876 L 595 639.999998606124 L 594.7265625 632.6251489686656 L 593.994140625 625.9598838084972 L 593.017578125 620.4868149950325 L 591.552734375 614.6638881467031 L 589.599609375 608.9609721577874 L 587.158203125 603.6353982273288 L 584.228515625 598.8879899246398 L 581.298828125 595.3979156091688 L 578.369140625 592.8849287298013 L 575.439453125 591.1978545676144 L 572.509765625 590.2525949819463 L 569.580078125 590.0070538728154 L 566.650390625 590.4508277754345 L 563.720703125 591.6028748475443 L 560.791015625 593.5158260574201 L 557.6171875 596.564256442886 L 554.6875 600.476470615594 L 552.001953125 605.2972445655794 L 549.8046875 610.5280232744836 L 547.8515625 616.8097678917529 L 546.38671875 623.5789222511555 L 545.41015625 630.9801143354061 L 545 639.999999087494 L 545 640.000000912506" fill-opacity="0.4"/></g><g id="sketch-9c3ee541"><title>Expression 32</title><path fill="#000000" stroke="none" paint-order="stroke fill markers" d="" fill-opacity="0.4"/><g><path fill="none" stroke="#000000" class="dcg-svg-curve" paint-order="fill stroke markers" d=" M 405 640.000001393876 L 405 640.000001393876 L 405.2734375 647.3748510313344 L 406.24999999999994 655.6124949959957 L 407.71484375 662.6602569193808 L 409.423828125 668.3986725725312 L 411.62109375000006 673.8948848679981 L 414.306640625 678.921380835068 L 417.23632812499994 682.9924961018703 L 420.41015625 686.1750970481096 L 423.58398437500006 688.3253450479044 L 426.51367187499994 689.5114336776803 L 429.44335937500006 689.9876045121027 L 432.373046875 689.774236248447 L 435.30273437500006 688.8622966364944 L 438.232421875 687.211321950228 L 441.162109375 684.739571491043 L 444.091796875 681.2999399919051 L 447.021484375 676.6207083313052 L 449.46289062499994 671.381261193221 L 451.41601562500006 665.7956798514599 L 452.880859375 660.1460938408889 L 454.1015625 653.2837773330622 L 454.83398437500006 645.7526411542018 L 455 640.000000912506" stroke-linecap="round" stroke-linejoin="round" stroke-miterlimit="10" stroke-width="10" stroke-dasharray=""/></g><g><path fill="none" stroke="#000000" class="dcg-svg-curve" paint-order="fill stroke markers" d=" M 545 640.000000912506 L 545 640.000000912506 L 545.41015625 649.0198856645939 L 546.3867187500001 656.4210777488449 L 547.8515625 663.1902321082472 L 549.8046875000001 669.4719767255166 L 552.001953125 674.7027554344206 L 554.6875 679.523529384406 L 557.6171875 683.435743557114 L 560.7910156250001 686.48417394258 L 563.7207031249999 688.3971251524556 L 566.650390625 689.5491722245655 L 569.580078125 689.9929461271846 L 572.509765625 689.7474050180537 L 575.439453125 688.8021454323856 L 578.369140625 687.1150712701987 L 581.298828125 684.6020843908312 L 584.228515625 681.1120100753602 L 587.158203125 676.3646017726712 L 589.5996093750001 671.0390278422124 L 591.552734375 665.3361118532969 L 593.017578125 659.5131850049675 L 593.994140625 654.0401161915028 L 594.7265625 647.3748510313344 L 595 640.000001393876" stroke-linecap="round" stroke-linejoin="round" stroke-miterlimit="10" stroke-width="10" stroke-dasharray=""/></g><path fill="#000000" stroke="none" paint-order="stroke fill markers" d="" fill-opacity="0.4"/><g><path fill="none" stroke="#000000" class="dcg-svg-curve" paint-order="fill stroke markers" d=" M 405 639.999998606124 L 405 639.999998606124 L 405.2734375 632.6251489686656 L 406.24999999999994 624.3875050040043 L 407.71484375 617.3397430806193 L 409.423828125 611.6013274274688 L 411.62109375000006 606.1051151320019 L 414.306640625 601.078619164932 L 417.23632812499994 597.0075038981297 L 420.41015625 593.8249029518904 L 423.58398437500006 591.6746549520956 L 426.51367187499994 590.4885663223197 L 429.44335937500006 590.0123954878973 L 432.373046875 590.225763751553 L 435.30273437500006 591.1377033635056 L 438.232421875 592.788678049772 L 441.162109375 595.260428508957 L 444.091796875 598.700060008095 L 447.021484375 603.3792916686948 L 449.46289062499994 608.618738806779 L 451.41601562500006 614.2043201485401 L 452.880859375 619.8539061591111 L 454.1015625 626.7162226669378 L 454.83398437500006 634.2473588457982 L 455 639.999999087494" stroke-linecap="round" stroke-linejoin="round" stroke-miterlimit="10" stroke-width="10" stroke-dasharray=""/></g><g><path fill="none" stroke="#000000" class="dcg-svg-curve" paint-order="fill stroke markers" d=" M 545 639.999999087494 L 545 639.999999087494 L 545.41015625 630.9801143354061 L 546.3867187500001 623.5789222511551 L 547.8515625 616.8097678917529 L 549.8046875000001 610.5280232744834 L 552.001953125 605.2972445655794 L 554.6875 600.476470615594 L 557.6171875 596.564256442886 L 560.7910156250001 593.51582605742 L 563.7207031249999 591.6028748475443 L 566.650390625 590.4508277754345 L 569.580078125 590.0070538728154 L 572.509765625 590.2525949819463 L 575.439453125 591.1978545676144 L 578.369140625 592.8849287298013 L 581.298828125 595.3979156091688 L 584.228515625 598.8879899246398 L 587.158203125 603.6353982273288 L 589.5996093750001 608.9609721577876 L 591.552734375 614.6638881467031 L 593.017578125 620.4868149950325 L 593.994140625 625.9598838084972 L 594.7265625 632.6251489686656 L 595 639.999998606124" stroke-linecap="round" stroke-linejoin="round" stroke-miterlimit="10" stroke-width="10" stroke-dasharray=""/></g></g></g><g id="labels-9c3ee541"/></g></svg>